<svg xmlns="http://www.w3.org/2000/svg" viewBox="0 0 128 128" role="img" aria-label="AutoPOM robot spider logo light background">
  <rect width="128" height="128" rx="20" fill="#f8fafc"/>
  <g fill="none" stroke-linecap="round" stroke-linejoin="round">
    <path d="M20 48l20 8M20 66l20-2M20 84l20-10" stroke="#2563eb" stroke-width="6"/>
    <path d="M108 48l-20 8M108 66l-20-2M108 84l-20-10" stroke="#2563eb" stroke-width="6"/>
    <path d="M34 34l18 14M94 34L76 48" stroke="#1d4ed8" stroke-width="5"/>
  </g>
  <ellipse cx="64" cy="70" rx="28" ry="23" fill="#dbeafe" stroke="#2563eb" stroke-width="4"/>
  <rect x="48" y="43" width="32" height="22" rx="7" fill="#eff6ff" stroke="#1d4ed8" stroke-width="3"/>
  <circle cx="58" cy="54" r="4.5" fill="#e11d48"/>
  <circle cx="70" cy="54" r="4.5" fill="#e11d48"/>
  <path d="M61 65h6M64 65v6" stroke="#1d4ed8" stroke-width="3" stroke-linecap="round"/>
  <circle cx="64" cy="33" r="5" fill="#2563eb"/>
  <path d="M64 38v7" stroke="#2563eb" stroke-width="3" stroke-linecap="round"/>
</svg>
